<?xml version="1.0" encoding="UTF-8"?>
<svg version="1.1" xmlns="http://www.w3.org/2000/svg" width="500" height="500">
<path d="M0 0 C5.28 0 10.56 0 16 0 C16 4.95 16 9.9 16 15 C21.28 15 26.56 15 32 15 C32 20.61 32 26.22 32 32 C26.72 32 21.44 32 16 32 C16.495 46.355 16.495 46.355 17 61 C21.95 61.33 26.9 61.66 32 62 C32 66.95 32 71.9 32 77 C33.87292725 76.99476318 35.74585449 76.98952637 37.67553711 76.98413086 C43.85021346 76.96803312 50.02488486 76.95652767 56.19957638 76.94818783 C59.94483037 76.94295986 63.69006176 76.93586378 67.43530273 76.92456055 C71.04681687 76.91372859 74.65830921 76.90772251 78.26983833 76.90512276 C79.65060329 76.90326906 81.031367 76.89964951 82.41212273 76.89426994 C84.33975952 76.88705553 86.26741807 76.88659191 88.19506836 76.88647461 C89.29427109 76.884254 90.39347382 76.88203339 91.52598572 76.87974548 C94 77 94 77 95 78 C95.07313567 80.53049402 95.09247527 83.03304837 95.0625 85.5625 C95.05798828 86.27341797 95.05347656 86.98433594 95.04882812 87.71679688 C95.03700864 89.47790013 95.01907263 91.23896036 95 93 C96.60681641 92.98259766 96.60681641 92.98259766 98.24609375 92.96484375 C99.64322743 92.95546701 101.04036299 92.94636669 102.4375 92.9375 C103.14455078 92.92912109 103.85160156 92.92074219 104.58007812 92.91210938 C106.38693559 92.90346412 108.19387603 92.94779989 110 93 C111 94 111 94 111.09765625 97.37890625 C111.09191424 98.77347492 111.07890228 100.16801597 111.0625 101.5625 C111.041875 104.016875 111.02125 106.47125 111 109 C115.95 109 120.9 109 126 109 C126 155.53 126 202.06 126 250 C55.72360073 250.71066022 55.72360073 250.71066022 36.1328125 250.83984375 C35.43289011 250.84448725 34.73296773 250.84913076 34.01183558 250.85391498 C3.29889422 251.05515999 -27.40701545 250.95175502 -58.11937714 250.65937424 C-61.75903731 250.62491444 -65.39871126 250.59239523 -69.03839111 250.56008911 C-74.7218173 250.50860167 -80.40513814 250.45064322 -86.08843613 250.38656425 C-88.16830843 250.36342357 -90.24819653 250.34165744 -92.3280983 250.32133675 C-95.14297272 250.29294114 -97.9576875 250.2581321 -100.77246094 250.22119141 C-101.60134638 250.21386773 -102.43023182 250.20654406 -103.284235 250.19899845 C-108.88536929 250.11463071 -108.88536929 250.11463071 -110 249 C-110.09803717 247.45896103 -110.12631857 245.91343207 -110.12698364 244.36927795 C-110.12980347 243.36738937 -110.13262329 242.36550079 -110.13552856 241.33325195 C-110.13350433 240.22433594 -110.1314801 239.11541992 -110.12939453 237.97290039 C-110.13114685 236.81173203 -110.13289917 235.65056366 -110.13470459 234.45420837 C-110.13836605 231.25480005 -110.13748529 228.05543273 -110.1343255 224.85602498 C-110.13179412 221.49584825 -110.13414256 218.13567427 -110.13571167 214.77549744 C-110.13753534 209.11342885 -110.13512634 203.45137326 -110.13037109 197.78930664 C-110.12497269 191.28731095 -110.12665775 184.78534683 -110.1321975 178.28335196 C-110.13677678 172.68054631 -110.13735458 167.07775003 -110.13475883 161.4749431 C-110.13321648 158.13877973 -110.13334902 154.80264262 -110.13629532 151.46647835 C-110.14606915 137.26603921 -109.9644327 123.17007343 -109 109 C-104.05 109 -99.1 109 -94 109 C-94 103.72 -94 98.44 -94 93 C-89.05 93 -84.1 93 -79 93 C-79.0395679 88.10846529 -79.0395679 88.10846529 -79.09008789 83.21704102 C-79.09724913 81.47778283 -79.05024702 79.73854696 -79 78 C-78 77 -78 77 -75.52598572 76.87974548 C-74.42678299 76.88196609 -73.32758026 76.88418671 -72.19506836 76.88647461 C-70.33325172 76.88658791 -70.33325172 76.88658791 -68.43382263 76.88670349 C-67.0691626 76.89181089 -65.70450298 76.8970269 -64.33984375 76.90234375 C-62.95121817 76.904208 -61.56259193 76.90563187 -60.17396545 76.90663147 C-56.51278885 76.91045613 -52.8516517 76.92028597 -49.19049072 76.93133545 C-45.45707737 76.94155068 -41.72365766 76.94612933 -37.99023438 76.95117188 C-30.66013615 76.9619083 -23.33007862 76.97950466 -16 77 C-16 72.05 -16 67.1 -16 62 C-11.05 61.67 -6.1 61.34 -1 61 C-0.67 51.43 -0.34 41.86 0 32 C-5.28 32 -10.56 32 -16 32 C-16 26.39 -16 20.78 -16 15 C-10.72 15 -5.44 15 0 15 C0 10.05 0 5.1 0 0 Z " fill="#E8E5D9" transform="translate(234,125)"/>
<path d="M0 0 C4.95 0 9.9 0 15 0 C15 4.95 15 9.9 15 15 C19.95 15 24.9 15 30 15 C30 20.28 30 25.56 30 31 C35.28 31 40.56 31 46 31 C46 35.95 46 40.9 46 46 C51.28 46 56.56 46 62 46 C62 51.28 62 56.56 62 62 C61.67 62 61.34 62 61 62 C61 57.05 61 52.1 61 47 C56.05 47 51.1 47 46 47 C46 62.51 46 78.02 46 94 C41.05 94 36.1 94 31 94 C31 98.95 31 103.9 31 109 C15.49 109 -0.02 109 -16 109 C-16 103.72 -16 98.44 -16 93 C-21.28 93 -26.56 93 -32 93 C-32 77.82 -32 62.64 -32 47 C-36.95 47 -41.9 47 -47 47 C-47 93.2 -47 139.4 -47 187 C-67.79 187 -88.58 187 -110 187 C-111.63545265 185.36454735 -111.12603436 183.51795096 -111.12698364 181.26161194 C-111.12980347 180.2366008 -111.13262329 179.21158966 -111.13552856 178.15551758 C-111.13350433 177.02146484 -111.1314801 175.88741211 -111.12939453 174.71899414 C-111.13114685 173.53212509 -111.13289917 172.34525604 -111.13470459 171.12242126 C-111.1383629 167.85797388 -111.13748946 164.59356674 -111.1343255 161.32911992 C-111.13180104 157.91874813 -111.13413974 154.5083791 -111.13571167 151.0980072 C-111.13753336 145.36879999 -111.13512733 139.63960565 -111.13037109 133.91040039 C-111.12493106 127.28084628 -111.12668924 120.65132294 -111.1321975 114.02176958 C-111.13673174 108.3376861 -111.13737757 102.65361189 -111.13475883 96.96952718 C-111.13319744 93.57127881 -111.13299849 90.1730449 -111.13629532 86.77479744 C-111.13882317 82.98664367 -111.13497919 79.19854968 -111.12939453 75.41040039 C-111.13141876 74.27837189 -111.13344299 73.14634338 -111.13552856 71.98001099 C-111.13270874 70.95218002 -111.12988892 69.92434906 -111.12698364 68.8653717 C-111.12660662 67.96884416 -111.12622959 67.07231661 -111.12584114 66.14862156 C-111 64 -111 64 -110 62 C-89.54 62 -69.08 62 -48 62 C-48 56.72 -48 51.44 -48 46 C-42.72 46 -37.44 46 -32 46 C-32 41.05 -32 36.1 -32 31 C-26.72 31 -21.44 31 -16 31 C-16 25.72 -16 20.44 -16 15 C-10.72 15 -5.44 15 0 15 C0 10.05 0 5.1 0 0 Z " fill="#D0CBBF" transform="translate(235,188)"/>
<path d="M0 0 C5.28 0 10.56 0 16 0 C16 4.95 16 9.9 16 15 C21.28 15 26.56 15 32 15 C32 20.61 32 26.22 32 32 C26.72 32 21.44 32 16 32 C16.495 46.355 16.495 46.355 17 61 C21.95 61.33 26.9 61.66 32 62 C32 66.95 32 71.9 32 77 C33.87292725 76.99476318 35.74585449 76.98952637 37.67553711 76.98413086 C43.85021346 76.96803312 50.02488486 76.95652767 56.19957638 76.94818783 C59.94483037 76.94295986 63.69006176 76.93586378 67.43530273 76.92456055 C71.04681687 76.91372859 74.65830921 76.90772251 78.26983833 76.90512276 C79.65060329 76.90326906 81.031367 76.89964951 82.41212273 76.89426994 C84.33975952 76.88705553 86.26741807 76.88659191 88.19506836 76.88647461 C89.29427109 76.884254 90.39347382 76.88203339 91.52598572 76.87974548 C94 77 94 77 95 78 C95.07320163 80.5327765 95.09227569 83.03103918 95.0625 85.5625 C95.041875 88.016875 95.02125 90.47125 95 93 C99.95 93 104.9 93 110 93 C110 98.61 110 104.22 110 110 C114.95 110 119.9 110 125 110 C125 114.95 125 119.9 125 125 C104.54 125 84.08 125 63 125 C63 119.72 63 114.44 63 109 C57.72 109 52.44 109 47 109 C47 104.05 47 99.1 47 94 C41.72 94 36.44 94 31 94 C31 88.72 31 83.44 31 78 C26.05 78 21.1 78 16 78 C16 73.05 16 68.1 16 63 C11.05 63 6.1 63 1 63 C1 67.95 1 72.9 1 78 C-4.28 78 -9.56 78 -15 78 C-15 83.28 -15 88.56 -15 94 C-20.28 94 -25.56 94 -31 94 C-31 98.95 -31 103.9 -31 109 C-36.28 109 -41.56 109 -47 109 C-47 114.28 -47 119.56 -47 125 C-67.46 125 -87.92 125 -109 125 C-109 119.72 -109 114.44 -109 109 C-104.05 109 -99.1 109 -94 109 C-94 103.72 -94 98.44 -94 93 C-89.05 93 -84.1 93 -79 93 C-79.0395679 88.10846529 -79.0395679 88.10846529 -79.09008789 83.21704102 C-79.09724913 81.47778283 -79.05024702 79.73854696 -79 78 C-78 77 -78 77 -75.52598572 76.87974548 C-74.42678299 76.88196609 -73.32758026 76.88418671 -72.19506836 76.88647461 C-70.33325172 76.88658791 -70.33325172 76.88658791 -68.43382263 76.88670349 C-67.0691626 76.89181089 -65.70450298 76.8970269 -64.33984375 76.90234375 C-62.95121817 76.904208 -61.56259193 76.90563187 -60.17396545 76.90663147 C-56.51278885 76.91045613 -52.8516517 76.92028597 -49.19049072 76.93133545 C-45.45707737 76.94155068 -41.72365766 76.94612933 -37.99023438 76.95117188 C-30.66013615 76.9619083 -23.33007862 76.97950466 -16 77 C-16 72.05 -16 67.1 -16 62 C-11.05 61.67 -6.1 61.34 -1 61 C-0.67 51.43 -0.34 41.86 0 32 C-5.28 32 -10.56 32 -16 32 C-16 26.39 -16 20.78 -16 15 C-10.72 15 -5.44 15 0 15 C0 10.05 0 5.1 0 0 Z " fill="#9A6C59" transform="translate(234,125)"/>
<path d="M0 0 C0.33 0 0.66 0 1 0 C1 4.95 1 9.9 1 15 C5.95 15 10.9 15 16 15 C16 61.53 16 108.06 16 156 C-4.79 156 -25.58 156 -47 156 C-47 114.75 -47 73.5 -47 31 C-26.54 31 -6.08 31 15 31 C15 26.05 15 21.1 15 16 C10.05 16 5.1 16 0 16 C0 10.72 0 5.44 0 0 Z " fill="#D3CFC1" transform="translate(344,219)"/>
<path d="M0 0 C10.23 0 20.46 0 31 0 C31 20.79 31 41.58 31 63 C20.77 63 10.54 63 0 63 C0 42.21 0 21.42 0 0 Z " fill="#6B4C3F" transform="translate(250,312)"/>
<path d="M0 0 C10.23 0 20.46 0 31 0 C31 20.79 31 41.58 31 63 C20.77 63 10.54 63 0 63 C0 42.21 0 21.42 0 0 Z " fill="#694A3D" transform="translate(203,312)"/>
<path d="M0 0 C0.70721191 0.00467285 1.41442383 0.0093457 2.14306641 0.01416016 C2.86059082 0.01754395 3.57811523 0.02092773 4.31738281 0.02441406 C21.88371367 0.19230742 21.88371367 0.19230742 24.83056641 3.13916016 C24.93126342 5.69161046 24.76181867 8.18012873 24.60791016 10.72900391 C24.87803466 13.65298322 25.63558541 14.29625632 27.83056641 16.13916016 C28.32556641 17.12916016 28.32556641 17.12916016 28.83056641 18.13916016 C29.54083984 18.12755859 30.25111328 18.11595703 30.98291016 18.10400391 C31.90201172 18.09498047 32.82111328 18.08595703 33.76806641 18.07666016 C35.14285156 18.05925781 35.14285156 18.05925781 36.54541016 18.04150391 C38.83056641 18.13916016 38.83056641 18.13916016 39.83056641 19.13916016 C41.11103258 28.76636878 40.83056641 38.44407773 40.83056641 48.13916016 C25.65056641 48.46916016 10.47056641 48.79916016 -5.16943359 49.13916016 C-6.35255857 46.77291021 -6.29623561 45.34389445 -6.29882812 42.70532227 C-6.30198029 41.78774643 -6.30513245 40.87017059 -6.30838013 39.92478943 C-6.3063559 38.93205521 -6.30433167 37.93932098 -6.30224609 36.91650391 C-6.30320282 35.90068741 -6.30415955 34.88487091 -6.30514526 33.83827209 C-6.30582649 31.68881163 -6.30397621 29.53934911 -6.29980469 27.38989258 C-6.29445014 24.08686744 -6.29975448 20.78397795 -6.30615234 17.48095703 C-6.30549166 15.39697235 -6.3042107 13.31298776 -6.30224609 11.22900391 C-6.30427032 10.23424545 -6.30629456 9.239487 -6.30838013 8.21458435 C-6.30522797 7.30016068 -6.30207581 6.385737 -6.29882812 5.44360352 C-6.29803253 4.63467148 -6.29723694 3.82573944 -6.29641724 2.99229431 C-6.02718052 -0.93680827 -3.30852466 0.01053412 0 0 Z " fill="#B3A7E8" transform="translate(224.16943359375,233.86083984375)"/>
<path d="M0 0 C5.28 0 10.56 0 16 0 C16 4.95 16 9.9 16 15 C21.28 15 26.56 15 32 15 C32 20.61 32 26.22 32 32 C26.72 32 21.44 32 16 32 C16 41.9 16 51.8 16 62 C11.05 62 6.1 62 1 62 C1 51.77 1 41.54 1 31 C-4.28 31 -9.56 31 -15 31 C-15 26.05 -15 21.1 -15 16 C-10.05 16 -5.1 16 0 16 C0 10.72 0 5.44 0 0 Z " fill="#865D4C" transform="translate(234,125)"/>
<path d="M0 0 C4.95 0 9.9 0 15 0 C15 31.02 15 62.04 15 94 C10.05 94 5.1 94 0 94 C0 62.98 0 31.96 0 0 Z " fill="#9D9ED4" transform="translate(172,281)"/>
<path d="M0 0 C4.95 0 9.9 0 15 0 C15 31.02 15 62.04 15 94 C10.05 94 5.1 94 0 94 C0 62.98 0 31.96 0 0 Z " fill="#ADABE6" transform="translate(297,281)"/>
<path d="M0 0 C4.95 0 9.9 0 15 0 C15 30.69 15 61.38 15 93 C10.05 93 5.1 93 0 93 C0 62.31 0 31.62 0 0 Z " fill="#B2A8E9" transform="translate(141,282)"/>
<path d="M0 0 C20.46 0 40.92 0 62 0 C62 4.95 62 9.9 62 15 C59.7036235 16.14818825 58.41002269 16.12669904 55.85742188 16.12939453 C55.00313599 16.13254669 54.1488501 16.13569885 53.26867676 16.13894653 C52.34470093 16.1369223 51.4207251 16.13489807 50.46875 16.1328125 C49.52189331 16.13376923 48.57503662 16.13472595 47.5994873 16.13571167 C45.59545831 16.13639286 43.59142711 16.1345428 41.58740234 16.13037109 C38.5126451 16.125022 35.43803393 16.13031814 32.36328125 16.13671875 C30.41927051 16.13605796 28.47525986 16.13477677 26.53125 16.1328125 C25.14528625 16.13584885 25.14528625 16.13584885 23.73132324 16.13894653 C22.87703735 16.13579437 22.02275146 16.13264221 21.14257812 16.12939453 C20.38916138 16.12859894 19.63574463 16.12780334 18.85949707 16.12698364 C17 16 17 16 15 15 C15.07105453 15.82472305 15.14210907 16.64944611 15.21531677 17.49916077 C16.10942354 29.08699405 16.12824293 40.62889926 16.09765625 52.24609375 C16.09578681 54.35457831 16.0943654 56.46306331 16.09336853 58.57154846 C16.08958474 64.07049804 16.07979073 69.56942041 16.06866455 75.06835938 C16.05836053 80.69986605 16.05385181 86.3313772 16.04882812 91.96289062 C16.03816397 102.97527225 16.02113845 113.98763384 16 125 C15.67 125 15.34 125 15 125 C15 93.98 15 62.96 15 31 C10.05 31 5.1 31 0 31 C0 20.77 0 10.54 0 0 Z " fill="#C5C0B6" transform="translate(297,250)"/>
<path d="M0 0 C4.95 0 9.9 0 15 0 C15.33 4.62 15.66 9.24 16 14 C17.31492432 14.02505615 18.62984863 14.0501123 19.98461914 14.07592773 C24.93293547 14.171164 29.88114865 14.27108508 34.8293457 14.37231445 C36.95790163 14.41522954 39.08648248 14.45692815 41.21508789 14.49731445 C53.17506022 14.72509667 65.07208737 15.07649863 77 16 C77 20.95 77 25.9 77 31 C56.54 31 36.08 31 15 31 C15 25.72 15 20.44 15 15 C10.05 15 5.1 15 0 15 C0 10.05 0 5.1 0 0 Z " fill="#845A48" transform="translate(282,219)"/>
<path d="M0 0 C20.46 0 40.92 0 62 0 C62 10.23 62 20.46 62 31 C57.05 31 52.1 31 47 31 C46.505 23.575 46.505 23.575 46 16 C31.15 16 16.3 16 1 16 C-1 6 -1 6 0 0 Z " fill="#C6C0B4" transform="translate(125,250)"/>
<path d="M0 0 C5.28 0 10.56 0 16 0 C16 0.33 16 0.66 16 1 C11.05 1 6.1 1 1 1 C1 5.95 1 10.9 1 16 C6.28 16 11.56 16 17 16 C17 26.23 17 36.46 17 47 C19.330625 46.814375 21.66125 46.62875 24.0625 46.4375 C32.16082001 45.86440627 39.91433184 46.30027872 48 47 C48 51.95 48 56.9 48 62 C49.87292725 61.99476318 51.74585449 61.98952637 53.67553711 61.98413086 C59.85021346 61.96803312 66.02488486 61.95652767 72.19957638 61.94818783 C75.94483037 61.94295986 79.69006176 61.93586378 83.43530273 61.92456055 C87.04681687 61.91372859 90.65830921 61.90772251 94.26983833 61.90512276 C95.65060329 61.90326906 97.031367 61.89964951 98.41212273 61.89426994 C100.33975952 61.88705553 102.26741807 61.88659191 104.19506836 61.88647461 C105.29427109 61.884254 106.39347382 61.88203339 107.52598572 61.87974548 C110 62 110 62 111 63 C111.07320163 65.5327765 111.09227569 68.03103918 111.0625 70.5625 C111.041875 73.016875 111.02125 75.47125 111 78 C115.95 78 120.9 78 126 78 C126 78.33 126 78.66 126 79 C120.72 79 115.44 79 110 79 C110 74.05 110 69.1 110 64 C89.54 64 69.08 64 48 64 C48 68.95 48 73.9 48 79 C47.67 79 47.34 79 47 79 C47 73.72 47 68.44 47 63 C42.05 63 37.1 63 32 63 C32 58.05 32 53.1 32 48 C27.05 48 22.1 48 17 48 C17 52.95 17 57.9 17 63 C11.72 63 6.44 63 1 63 C1 68.28 1 73.56 1 79 C-4.28 79 -9.56 79 -15 79 C-15 78.67 -15 78.34 -15 78 C-10.05 78 -5.1 78 0 78 C0 73.38 0 68.76 0 64 C-20.13 64 -40.26 64 -61 64 C-61 68.95 -61 73.9 -61 79 C-66.28 79 -71.56 79 -77 79 C-77 83.95 -77 88.9 -77 94 C-77.33 94 -77.66 94 -78 94 C-78 88.72 -78 83.44 -78 78 C-73.05 78 -68.1 78 -63 78 C-63.0395679 73.10846529 -63.0395679 73.10846529 -63.09008789 68.21704102 C-63.09724913 66.47778283 -63.05024702 64.73854696 -63 63 C-62 62 -62 62 -59.52598572 61.87974548 C-58.42678299 61.88196609 -57.32758026 61.88418671 -56.19506836 61.88647461 C-54.95385727 61.88655014 -53.71264618 61.88662567 -52.43382263 61.88670349 C-51.0691626 61.89181089 -49.70450298 61.8970269 -48.33984375 61.90234375 C-46.95121817 61.904208 -45.56259193 61.90563187 -44.17396545 61.90663147 C-40.51278885 61.91045613 -36.8516517 61.92028597 -33.19049072 61.93133545 C-29.45707737 61.94155068 -25.72365766 61.94612933 -21.99023438 61.95117188 C-14.66013615 61.9619083 -7.33007862 61.97950466 0 62 C0 57.05 0 52.1 0 47 C4.95 46.67 9.9 46.34 15 46 C15.33 36.43 15.66 26.86 16 17 C10.72 17 5.44 17 0 17 C0 11.39 0 5.78 0 0 Z " fill="#C3B0A8" transform="translate(218,140)"/>
<path d="M0 0 C2.09049371 0.0050303 4.1809886 0.00959047 6.27148438 0.01367188 C11.32685293 0.02454419 16.38216285 0.04172245 21.4375 0.0625 C21.4375 5.3425 21.4375 10.6225 21.4375 16.0625 C0.9775 16.0625 -19.4825 16.0625 -40.5625 16.0625 C-40.5625 11.1125 -40.5625 6.1625 -40.5625 1.0625 C-27.01869223 0.10637794 -13.57368746 -0.05751103 0 0 Z " fill="#845A48" transform="translate(165.5625,233.9375)"/>
<path d="M0 0 C4.95 0 9.9 0 15 0 C15 4.95 15 9.9 15 15 C19.95 15 24.9 15 30 15 C30 20.28 30 25.56 30 31 C14.82 31 -0.36 31 -16 31 C-16 25.72 -16 20.44 -16 15 C-10.72 15 -5.44 15 0 15 C0 10.05 0 5.1 0 0 Z " fill="#E9E4D8" transform="translate(235,188)"/>
<path d="M0 0 C10.23 0 20.46 0 31 0 C31 0.33 31 0.66 31 1 C21.1 1 11.2 1 1 1 C1 5.95 1 10.9 1 16 C5.95 16 10.9 16 16 16 C16 31.18 16 46.36 16 62 C20.95 62 25.9 62 31 62 C31 62.33 31 62.66 31 63 C20.77 63 10.54 63 0 63 C0 42.21 0 21.42 0 0 Z " fill="#845C4B" transform="translate(203,312)"/>
<path d="M0 0 C5.28 0 10.56 0 16 0 C16 15.51 16 31.02 16 47 C10.72 47 5.44 47 0 47 C0 31.49 0 15.98 0 0 Z " fill="#9B9ED7" transform="translate(328,281)"/>
<path d="M0 0 C4.95 0 9.9 0 15 0 C15 15.18 15 30.36 15 46 C20.28 46 25.56 46 31 46 C31 46.33 31 46.66 31 47 C20.77 47 10.54 47 0 47 C0 31.49 0 15.98 0 0 Z " fill="#845A48" transform="translate(250,328)"/>
<path d="M0 0 C0 0.33 0 0.66 0 1 C-4.95 1 -9.9 1 -15 1 C-15 5.95 -15 10.9 -15 16 C-30.51 16 -46.02 16 -62 16 C-62 2 -62 2 -61 1 C-57.86787408 0.83884259 -54.75568299 0.73998635 -51.62109375 0.68359375 C-50.66163345 0.66281265 -49.70217316 0.64203156 -48.71363831 0.62062073 C-46.66827019 0.57723655 -44.62285097 0.53621002 -42.57739258 0.49731445 C-39.50264142 0.43874093 -36.42809878 0.37339846 -33.35351562 0.30664062 C-22.23402498 0.07329828 -11.12198656 -0.06392529 0 0 Z " fill="#C6C2B7" transform="translate(281,281)"/>
<path d="M0 0 C4.95 0 9.9 0 15 0 C15 15.51 15 31.02 15 47 C10.05 47 5.1 47 0 47 C0 31.49 0 15.98 0 0 Z " fill="#9C9ED8" transform="translate(172,281)"/>
<path d="M0 0 C4.62 0 9.24 0 14 0 C14 15.18 14 30.36 14 46 C9.05 46 4.1 46 -1 46 C-1.024644 39.60962203 -1.04283317 33.21927148 -1.05493164 26.82885742 C-1.05997308 24.65307127 -1.06680607 22.47728853 -1.07543945 20.30151367 C-1.08751338 17.18146933 -1.09323005 14.06146962 -1.09765625 10.94140625 C-1.10281754 9.96224747 -1.10797882 8.98308868 -1.11329651 7.97425842 C-1.11337204 7.07340012 -1.11344757 6.17254181 -1.11352539 5.24438477 C-1.115746 4.44718521 -1.11796661 3.64998566 -1.12025452 2.82862854 C-1 1 -1 1 0 0 Z " fill="#C5C1B6" transform="translate(204,235)"/>
<path d="M0 0 C0.22705078 3.07275391 0.22705078 3.07275391 0.1953125 6.9765625 C0.1924826 7.66181 0.18965271 8.3470575 0.18673706 9.05307007 C0.17553281 11.24389027 0.15042859 13.43430316 0.125 15.625 C0.11497048 17.1093691 0.10584458 18.5937446 0.09765625 20.078125 C0.07729323 23.71903356 0.03814721 27.35906032 0 31 C-5.28 31 -10.56 31 -16 31 C-16.02291238 26.60336967 -16.04283833 22.20694512 -16.05493164 17.81030273 C-16.05997121 16.31355082 -16.06680287 14.81680384 -16.07543945 13.32006836 C-16.08752159 11.17300193 -16.09323191 9.02600038 -16.09765625 6.87890625 C-16.10289307 5.5854126 -16.10812988 4.29191895 -16.11352539 2.95922852 C-16 0 -16 0 -15 -1 C-12.86127792 -1.28807277 -10.71290157 -1.50614083 -8.5625 -1.6875 C-7.38816406 -1.79449219 -6.21382813 -1.90148437 -5.00390625 -2.01171875 C-2 -2 -2 -2 0 0 Z " fill="#AAACEA" transform="translate(344,344)"/>
<path d="M0 0 C0.33 0 0.66 0 1 0 C2.08762049 13.34082402 2.11763264 26.62253321 2.0625 40 C2.05747123 42.14322811 2.05291078 44.28645738 2.04882812 46.4296875 C2.0379402 51.61982073 2.02075275 56.80989722 2 62 C1.34 62 0.68 62 0 62 C-0.66 52.76 -1.32 43.52 -2 34 C-5.3 33.67 -8.6 33.34 -12 33 C-15.125 31.0625 -15.125 31.0625 -17 28 C-17.2746491 25.31592922 -17.25330886 22.8008361 -17.078125 20.109375 C-17.05234375 19.41328125 -17.0265625 18.7171875 -17 18 C-18.83123098 16.16876902 -21.75151744 16.63106385 -24.22265625 16.46484375 C-25.48271484 16.37783203 -26.74277344 16.29082031 -28.04101562 16.20117188 C-29.38150393 16.11318236 -30.72199881 16.02529305 -32.0625 15.9375 C-33.40692976 15.84612471 -34.75133131 15.75433325 -36.09570312 15.66210938 C-39.39687974 15.43729806 -42.69828848 15.2167902 -46 15 C-45.67 14.01 -45.34 13.02 -45 12 C-40.84135152 12.12035545 -36.6828439 12.24467666 -32.52441406 12.37231445 C-31.1165673 12.4150104 -29.70869002 12.45671445 -28.30078125 12.49731445 C-18.84025406 12.77099399 -9.43843065 13.26589984 0 14 C0 9.38 0 4.76 0 0 Z " fill="#C4C6C1" transform="translate(265,219)"/>
<path d="M0 0 C5.28 0 10.56 0 16 0 C15.67 10.56 15.34 21.12 15 32 C10.38 32 5.76 32 1 32 C0 31 0 31 -0.11352539 28.04077148 C-0.10828857 26.74727783 -0.10305176 25.45378418 -0.09765625 24.12109375 C-0.0962413 23.4344313 -0.09482635 22.74776886 -0.09336853 22.04029846 C-0.08775479 19.83932199 -0.07520007 17.63844591 -0.0625 15.4375 C-0.05748676 13.94856917 -0.05292355 12.45963676 -0.04882812 10.97070312 C-0.03863021 7.31373195 -0.01905779 3.65697883 0 0 Z " fill="#9D9DD8" transform="translate(219,234)"/>
<path d="M0 0 C4.95 0 9.9 0 15 0 C15.33 4.62 15.66 9.24 16 14 C22.93 14.495 22.93 14.495 30 15 C30 20.28 30 25.56 30 31 C25.05 31 20.1 31 15 31 C15 25.72 15 20.44 15 15 C10.05 15 5.1 15 0 15 C0 10.05 0 5.1 0 0 Z " fill="#6B4B3E" transform="translate(282,219)"/>
<path d="M0 0 C4.95 0 9.9 0 15 0 C15 10.23 15 20.46 15 31 C10.05 31 5.1 31 0 31 C0 20.77 0 10.54 0 0 Z " fill="#9C9DD6" transform="translate(297,344)"/>
<path d="M0 0 C4.95 0 9.9 0 15 0 C15 9.9 15 19.8 15 30 C10.05 30 5.1 30 0 30 C0 20.1 0 10.2 0 0 Z " fill="#9B9DD8" transform="translate(141,282)"/>
<path d="M0 0 C5.28 0 10.56 0 16 0 C16 5.28 16 10.56 16 16 C10.72 16 5.44 16 0 16 C0 10.72 0 5.44 0 0 Z " fill="#6D4D40" transform="translate(187,218)"/>
<path d="M0 0 C0 5.94 0 11.88 0 18 C-4.95 18 -9.9 18 -15 18 C-15.020625 15.56625 -15.04125 13.1325 -15.0625 10.625 C-15.071604 9.86010254 -15.08070801 9.09520508 -15.09008789 8.30712891 C-15.11111111 3.22222222 -15.11111111 3.22222222 -14 1 C-11.34765625 0.5859375 -11.34765625 0.5859375 -8.0625 0.375 C-6.98097656 0.30023438 -5.89945313 0.22546875 -4.78515625 0.1484375 C-3.19159853 0.06350736 -1.59581933 0 0 0 Z " fill="#80D3CD" transform="translate(187,310)"/>
<path d="M0 0 C5.28 0 10.56 0 16 0 C16 5.28 16 10.56 16 16 C15.34 15.67 14.68 15.34 14 15 C11.62216895 15.08838461 9.24654854 15.24346421 6.875 15.4375 C4.60625 15.623125 2.3375 15.80875 0 16 C0 10.72 0 5.44 0 0 Z " fill="#89CFCA" transform="translate(328,328)"/>
<path d="M0 0 C4.95 0 9.9 0 15 0 C15 5.28 15 10.56 15 16 C10.05 16 5.1 16 0 16 C0 10.72 0 5.44 0 0 Z " fill="#BFA2DD" transform="translate(172,328)"/>
<path d="M0 0 C4.95 0 9.9 0 15 0 C15 5.28 15 10.56 15 16 C10.05 16 5.1 16 0 16 C0 10.72 0 5.44 0 0 Z " fill="#9C9ED7" transform="translate(297,281)"/>
<path d="M0 0 C4.95 0.33 9.9 0.66 15 1 C15 5.95 15 10.9 15 16 C10.05 16 5.1 16 0 16 C0 10.72 0 5.44 0 0 Z " fill="#9B9ED9" transform="translate(328,359)"/>
<path d="M0 0 C4.95 0 9.9 0 15 0 C15 4.95 15 9.9 15 15 C10.05 15 5.1 15 0 15 C0 10.05 0 5.1 0 0 Z " fill="#9B9DDA" transform="translate(141,360)"/>
<path d="M0 0 C4.95 0 9.9 0 15 0 C15 4.95 15 9.9 15 15 C10.05 15 5.1 15 0 15 C0 10.05 0 5.1 0 0 Z " fill="#C1A1DE" transform="translate(328,312)"/>
<path d="M0 0 C4.95 0 9.9 0 15 0 C15 4.95 15 9.9 15 15 C10.05 15 5.1 15 0 15 C0 10.05 0 5.1 0 0 Z " fill="#9E9DD5" transform="translate(250,266)"/>
<path d="M0 0 C4.95 0 9.9 0 15 0 C15 4.95 15 9.9 15 15 C10.05 15 5.1 15 0 15 C0 10.05 0 5.1 0 0 Z " fill="#EBE5D9" transform="translate(266,219)"/>
<path d="M0 0 C4.95 0 9.9 0 15 0 C15 4.95 15 9.9 15 15 C10.05 15 5.1 15 0 15 C0 10.05 0 5.1 0 0 Z " fill="#674C40" transform="translate(250,188)"/>
<path d="M0 0 C4.95 0 9.9 0 15 0 C15 4.95 15 9.9 15 15 C10.05 15 5.1 15 0 15 C0 10.05 0 5.1 0 0 Z " fill="#684B40" transform="translate(219,188)"/>
<path d="M0 0 C4.95 0.33 9.9 0.66 15 1 C15 5.29 15 9.58 15 14 C12.23547967 15.38226016 9.9538637 15.09525387 6.875 15.0625 C5.77929688 15.05347656 4.68359375 15.04445313 3.5546875 15.03515625 C2.29011719 15.01775391 2.29011719 15.01775391 1 15 C0.67 15.66 0.34 16.32 0 17 C0 11.39 0 5.78 0 0 Z " fill="#ABACE8" transform="translate(172,296)"/>
<path d="M0 0 C4.95 0 9.9 0 15 0 C15 4.62 15 9.24 15 14 C10.05 14 5.1 14 0 14 C0 9.38 0 4.76 0 0 Z " fill="#69493E" transform="translate(172,235)"/>
<path d="M0 0 C4.62 0 9.24 0 14 0 C14 4.95 14 9.9 14 15 C9.38 15 4.76 15 0 15 C0 10.05 0 5.1 0 0 Z " fill="#EAE5DA" transform="translate(204,219)"/>
<path d="M0 0 C4.95 0 9.9 0 15 0 C15 4.62 15 9.24 15 14 C10.05 14 5.1 14 0 14 C0 9.38 0 4.76 0 0 Z " fill="#68493C" transform="translate(266,204)"/>
<path d="M0 0 C4.95 0 9.9 0 15 0 C15 4.62 15 9.24 15 14 C10.05 14 5.1 14 0 14 C0 9.38 0 4.76 0 0 Z " fill="#68493C" transform="translate(203,204)"/>
<path d="M0 0 C4.62 0 9.24 0 14 0 C14 4.95 14 9.9 14 15 C9.38 15 4.76 15 0 15 C0 10.05 0 5.1 0 0 Z " fill="#674A3D" transform="translate(235,172)"/>
<path d="M0 0 C0 5.28 0 10.56 0 16 C-4.29 16 -8.58 16 -13 16 C-13.125 3.25 -13.125 3.25 -12 1 C-10.0390625 0.5859375 -10.0390625 0.5859375 -7.625 0.375 C-6.43777344 0.26285156 -6.43777344 0.26285156 -5.2265625 0.1484375 C-3.48753275 0.03250218 -1.74288998 0 0 0 Z " fill="#C1A1E2" transform="translate(311,328)"/>
<path d="M0 0 C0.33 0 0.66 0 1 0 C1 31.02 1 62.04 1 94 C-0.32 93.67 -1.64 93.34 -3 93 C-2.75836121 91.77981926 -2.75836121 91.77981926 -2.51184082 90.5349884 C-1.9260491 86.4892639 -1.83239479 82.51809476 -1.81054688 78.44018555 C-1.80225357 77.60210861 -1.79396027 76.76403168 -1.78541565 75.90055847 C-1.76808536 74.09016948 -1.75289974 72.27975893 -1.73963928 70.46933556 C-1.71853749 67.60790149 -1.69152546 64.74657685 -1.66296387 61.88520813 C-1.59328922 54.7852832 -1.53358555 47.68528119 -1.47393799 40.58526611 C-1.42309485 34.57309429 -1.36832916 28.56098427 -1.30812073 22.5488987 C-1.28147522 19.72310319 -1.26071145 16.89730205 -1.2401123 14.07145691 C-1.2235197 12.35191568 -1.20664879 10.6323771 -1.18945312 8.9128418 C-1.18526871 8.12169983 -1.18108429 7.33055786 -1.17677307 6.51544189 C-1.11385576 1.11385576 -1.11385576 1.11385576 0 0 Z " fill="#E1DEE7" transform="translate(296,281)"/>
<path d="M0 0 C4.95 0 9.9 0 15 0 C15 15.84 15 31.68 15 48 C10.05 48 5.1 48 0 48 C0 32.16 0 16.32 0 0 Z M2 3 C1.64620417 5.53502405 1.43216962 7.95056505 1.3125 10.5 C1.2719751 11.26940918 1.2314502 12.03881836 1.18969727 12.83154297 C0.71779155 24.22168142 1.42859221 35.62458944 2 47 C5.63 47 9.26 47 13 47 C14.03084581 40.22587039 14.14998224 33.59513451 14.125 26.75 C14.12886719 25.67492187 14.13273438 24.59984375 14.13671875 23.4921875 C14.13542969 22.45835937 14.13414062 21.42453125 14.1328125 20.359375 C14.13168457 19.42577148 14.13055664 18.49216797 14.12939453 17.53027344 C14.01014479 15.19837841 13.56879423 13.25005669 13 11 C13.4375 8.25 13.4375 8.25 14 6 C13.34 6 12.68 6 12 6 C12.185625 5.360625 12.37125 4.72125 12.5625 4.0625 C12.706875 3.381875 12.85125 2.70125 13 2 C11.10511048 0.10511048 8.42860854 0.81980888 5.91015625 0.76953125 C3.7587364 0.8297208 3.7587364 0.8297208 2 3 Z " fill="#ACABDA" transform="translate(141,312)"/>
<path d="M0 0 C1.79158489 -0.02696365 3.58328473 -0.04637917 5.375 -0.0625 C6.37273437 -0.07410156 7.37046875 -0.08570313 8.3984375 -0.09765625 C11 0 11 0 13 1 C13 4.96 13 8.92 13 13 C11.06125 13.020625 9.1225 13.04125 7.125 13.0625 C6.03445313 13.07410156 4.94390625 13.08570313 3.8203125 13.09765625 C1 13 1 13 -1 12 C-1.02712066 10.56260487 -1.04645067 9.12506137 -1.0625 7.6875 C-1.07410156 6.88699219 -1.08570313 6.08648437 -1.09765625 5.26171875 C-1 3 -1 3 0 0 Z " fill="#7FD4CB" transform="translate(252,235)"/>
<path d="M0 0 C5.28 0 10.56 0 16 0 C16 15.51 16 31.02 16 47 C10.72 47 5.44 47 0 47 C0 46.67 0 46.34 0 46 C4.95 46 9.9 46 15 46 C14.34 31.81 13.68 17.62 13 3 C9.37 2.67 5.74 2.34 2 2 C2.01160156 3.59070313 2.02320313 5.18140625 2.03515625 6.8203125 C2.04453822 8.92187382 2.05363798 11.02343642 2.0625 13.125 C2.07087891 14.17171875 2.07925781 15.2184375 2.08789062 16.296875 C2.10375207 21.3090905 2.08177213 26.07665912 1 31 C0.67 31 0.34 31 0 31 C0 20.77 0 10.54 0 0 Z " fill="#A9A6C8" transform="translate(328,281)"/>
<path d="M0 0 C0.33 0 0.66 0 1 0 C1.01981934 0.89831543 1.03963867 1.79663086 1.06005859 2.72216797 C1.13809261 6.05090078 1.22478114 9.37917256 1.31738281 12.70751953 C1.35569674 14.1488374 1.39054543 15.59025168 1.421875 17.03173828 C1.46747446 19.10223886 1.52547444 21.17207433 1.5859375 23.2421875 C1.6173584 24.4885498 1.6487793 25.73491211 1.68115234 27.01904297 C1.69682309 30.11541776 1.69682309 30.11541776 4 32 C3.9765625 34.8203125 3.9765625 34.8203125 3.625 38.125 C3.51414063 39.22070312 3.40328125 40.31640625 3.2890625 41.4453125 C3.19367188 42.28835938 3.09828125 43.13140625 3 44 C4.485 43.505 4.485 43.505 6 43 C8.21045313 43.03851996 10.41968903 43.15696754 12.625 43.3125 C13.29853516 43.35882568 13.97207031 43.40515137 14.66601562 43.45288086 C25.45023046 44.21418942 36.22540662 45.11457588 47 46 C47 46.33 47 46.66 47 47 C31.82 47.33 16.64 47.66 1 48 C-0.18695418 45.62609164 -0.12075833 44.19755049 -0.11352539 41.55029297 C-0.11344986 40.62948944 -0.11337433 39.70868591 -0.11329651 38.75997925 C-0.10813522 37.76410797 -0.10297394 36.76823669 -0.09765625 35.7421875 C-0.0962413 34.72399933 -0.09482635 33.70581116 -0.09336853 32.6567688 C-0.087759 29.39614965 -0.07520488 26.13559849 -0.0625 22.875 C-0.05748623 20.66796974 -0.05292311 18.46093841 -0.04882812 16.25390625 C-0.03778648 10.83591419 -0.02103905 5.41796195 0 0 Z " fill="#BEADCD" transform="translate(218,235)"/>
<path d="M0 0 C0.66 0 1.32 0 2 0 C2 31.02 2 62.04 2 94 C1.67 94 1.34 94 1 94 C0.71584753 82.03936843 0.43727093 70.0786214 0.16588497 58.11769295 C0.0397036 52.56423303 -0.0884248 47.01083204 -0.22094727 41.45751953 C-0.34868028 36.10194318 -0.47137154 30.74627324 -0.59051323 25.39049911 C-0.63694772 23.34345184 -0.68522322 21.29644549 -0.73533821 19.24948502 C-0.80502359 16.39052971 -0.86826182 13.5315011 -0.92993164 10.67236328 C-0.95222839 9.81928589 -0.97452515 8.9662085 -0.99749756 8.08728027 C-1.11405216 2.22810432 -1.11405216 2.22810432 0 0 Z " fill="#C8C9CC" transform="translate(170,281)"/>
<path d="M0 0 C4.95 0 9.9 0 15 0 C15 9.9 15 19.8 15 30 C14.01 29.67 13.02 29.34 12 29 C12.33 20.09 12.66 11.18 13 2 C9.37 1.67 5.74 1.34 2 1 C2 10.57 2 20.14 2 30 C1.34 30 0.68 30 0 30 C0 20.1 0 10.2 0 0 Z " fill="#A09EC8" transform="translate(141,282)"/>
<path d="M0 0 C15.51 0 31.02 0 47 0 C47 4.62 47 9.24 47 14 C46.34 13.34 45.68 12.68 45 12 C45 8.37 45 4.74 45 1 C30.48 1 15.96 1 1 1 C1 5.29 1 9.58 1 14 C5.95 14 10.9 14 16 14 C16 14.33 16 14.66 16 15 C11.05 15 6.1 15 1 15 C1 19.95 1 24.9 1 30 C0.67 30 0.34 30 0 30 C0 25.05 0 20.1 0 15 C-4.95 15 -9.9 15 -15 15 C-15 14.67 -15 14.34 -15 14 C-10.05 14 -5.1 14 0 14 C0 9.38 0 4.76 0 0 Z " fill="#8E6C60" transform="translate(281,204)"/>
<path d="M0 0 C0 5.94 0 11.88 0 18 C-4.95 18 -9.9 18 -15 18 C-15.020625 15.56625 -15.04125 13.1325 -15.0625 10.625 C-15.071604 9.86010254 -15.08070801 9.09520508 -15.09008789 8.30712891 C-15.11111111 3.22222222 -15.11111111 3.22222222 -14 1 C-11.34765625 0.5859375 -11.34765625 0.5859375 -8.0625 0.375 C-6.98097656 0.30023438 -5.89945313 0.22546875 -4.78515625 0.1484375 C-3.19159853 0.06350736 -1.59581933 0 0 0 Z M-13 4 C-13 7.96 -13 11.92 -13 16 C-9.37 16 -5.74 16 -2 16 C-1.814375 14.39125 -1.62875 12.7825 -1.4375 11.125 C-1.33308594 10.22007812 -1.22867188 9.31515625 -1.12109375 8.3828125 C-0.80325148 5.98346943 -0.80325148 5.98346943 -2 4 C-5.63 4 -9.26 4 -13 4 Z " fill="#94C9CC" transform="translate(187,310)"/>
<path d="M0 0 C0.22705078 3.07275391 0.22705078 3.07275391 0.1953125 6.9765625 C0.1924826 7.66181 0.18965271 8.3470575 0.18673706 9.05307007 C0.17553281 11.24389027 0.15042859 13.43430316 0.125 15.625 C0.11497048 17.1093691 0.10584458 18.5937446 0.09765625 20.078125 C0.07559294 23.71888261 0.04106176 27.35940156 0 31 C-0.33 31 -0.66 31 -1 31 C-1 21.1 -1 11.2 -1 1 C-1.99 1.495 -1.99 1.495 -3 2 C-6.67015275 2.1377685 -10.32611348 2.04271961 -14 2 C-14.33 6.29 -14.66 10.58 -15 15 C-15.33 15 -15.66 15 -16 15 C-16.02685095 12.52076199 -16.04676547 10.0418116 -16.0625 7.5625 C-16.07506836 6.50192383 -16.07506836 6.50192383 -16.08789062 5.41992188 C-16.09653588 3.61306441 -16.05220011 1.80612397 -16 0 C-14.12696296 -1.87303704 -11.08263116 -1.47495882 -8.5625 -1.6875 C-7.38816406 -1.79449219 -6.21382813 -1.90148437 -5.00390625 -2.01171875 C-2 -2 -2 -2 0 0 Z " fill="#A8B6D7" transform="translate(344,344)"/>
<path d="M0 0 C-0.33 3.96 -0.66 7.92 -1 12 C5.93 12.495 5.93 12.495 13 13 C12.67 14.65 12.34 16.3 12 18 C2.38511678 17.81477458 2.38511678 17.81477458 -2.1875 15.125 C-4.86751641 10.50428205 -4.41121302 6.21783634 -4 1 C-2 0 -2 0 0 0 Z " fill="#99BFDC" transform="translate(252,235)"/>
<path d="M0 0 C4.95 0 9.9 0 15 0 C15 4.95 15 9.9 15 15 C14.34 15 13.68 15 13 15 C12.67 15.66 12.34 16.32 12 17 C11.80377759 12.78121808 12.19769832 9.82989106 14 6 C13.34 6 12.68 6 12 6 C12 4.68 12 3.36 12 2 C7.99745544 1.90818866 7.99745544 1.90818866 4 2 C1.69208781 4.30791219 2.54006023 9.8724496 2.37890625 12.99609375 C2 16 2 16 0 18 C0 12.06 0 6.12 0 0 Z " fill="#BCA3D6" transform="translate(141,312)"/>
<path d="M0 0 C0.33 0 0.66 0 1 0 C1.02505615 0.80743652 1.0501123 1.61487305 1.07592773 2.44677734 C1.19165487 6.08968917 1.31448635 9.73232726 1.4375 13.375 C1.47681641 14.64601563 1.51613281 15.91703125 1.55664062 17.2265625 C1.59853516 18.43828125 1.64042969 19.65 1.68359375 20.8984375 C1.72025146 22.01911621 1.75690918 23.13979492 1.79467773 24.29443359 C1.82596013 26.96712771 1.82596013 26.96712771 3 29 C6.3 29 9.6 29 13 29 C13.33 19.43 13.66 9.86 14 0 C14.33 0 14.66 0 15 0 C15 10.23 15 20.46 15 31 C10.05 31 5.1 31 0 31 C0 20.77 0 10.54 0 0 Z " fill="#A2A1C5" transform="translate(297,344)"/>
<path d="M0 0 C0.99 0.495 0.99 0.495 2 1 C2.4140625 3.94140625 2.4140625 3.94140625 2.625 7.5625 C2.69976562 8.76003906 2.77453125 9.95757812 2.8515625 11.19140625 C2.90054687 12.11824219 2.94953125 13.04507812 3 14 C6.3 13.67 9.6 13.34 13 13 C13.33 9.04 13.66 5.08 14 1 C14.33 1 14.66 1 15 1 C15 5.95 15 10.9 15 16 C10.05 16 5.1 16 0 16 C0 10.72 0 5.44 0 0 Z " fill="#A1A1C8" transform="translate(328,359)"/>
<path d="M0 0 C0.99 0 1.98 0 3 0 C3 10.23 3 20.46 3 31 C2.34 31 1.68 31 1 31 C0.16639406 20.63946908 -0.12288464 10.3905794 0 0 Z " fill="#B8B7CC" transform="translate(264,250)"/>
<path d="M0 0 C0.33 0 0.66 0 1 0 C1.06058594 0.68707031 1.12117187 1.37414062 1.18359375 2.08203125 C1.26738281 2.98308594 1.35117188 3.88414062 1.4375 4.8125 C1.51871094 5.70582031 1.59992188 6.59914063 1.68359375 7.51953125 C1.93489767 10.12743559 1.93489767 10.12743559 3 13 C4.299375 12.855625 5.59875 12.71125 6.9375 12.5625 C7.66839844 12.48128906 8.39929688 12.40007812 9.15234375 12.31640625 C11.01140229 12.18113386 11.01140229 12.18113386 12 11 C12.23363881 9.15108054 12.41303635 7.29511969 12.5625 5.4375 C12.64628906 4.42558594 12.73007813 3.41367187 12.81640625 2.37109375 C12.87699219 1.58863281 12.93757812 0.80617188 13 0 C13.66 0 14.32 0 15 0 C15 4.95 15 9.9 15 15 C10.05 15 5.1 15 0 15 C0 10.05 0 5.1 0 0 Z " fill="#A2A1C7" transform="translate(141,360)"/>
<path d="M0 0 C5.28 0 10.56 0 16 0 C15.67 0.66 15.34 1.32 15 2 C12.27734375 2.4140625 12.27734375 2.4140625 8.9375 2.625 C7.83277344 2.69976562 6.72804687 2.77453125 5.58984375 2.8515625 C4.73519531 2.90054688 3.88054687 2.94953125 3 3 C2.21226083 6.53501458 1.82504198 9.90249788 1.68359375 13.51953125 C1.64169922 14.54111328 1.59980469 15.56269531 1.55664062 16.61523438 C1.51732422 17.67033203 1.47800781 18.72542969 1.4375 19.8125 C1.39431641 20.88693359 1.35113281 21.96136719 1.30664062 23.06835938 C1.20089017 25.71212082 1.09879767 28.3559711 1 31 C0.67 31 0.34 31 0 31 C0 20.77 0 10.54 0 0 Z " fill="#A2A0C4" transform="translate(219,234)"/>
<path d="M0 0 C4.95 0 9.9 0 15 0 C15 5.28 15 10.56 15 16 C14.67 16 14.34 16 14 16 C13.93941406 15.14535156 13.87882813 14.29070312 13.81640625 13.41015625 C13.73261719 12.30542969 13.64882812 11.20070313 13.5625 10.0625 C13.48128906 8.96035156 13.40007812 7.85820312 13.31640625 6.72265625 C13.29581916 4.08890097 13.29581916 4.08890097 12 3 C10.31816052 2.76712992 8.6287584 2.58735834 6.9375 2.4375 C5.308125 2.293125 3.67875 2.14875 2 2 C1.67 6.29 1.34 10.58 1 15 C0.67 15 0.34 15 0 15 C0 10.05 0 5.1 0 0 Z " fill="#A2A1C3" transform="translate(172,281)"/>
<path d="M0 0 C4.95 0 9.9 0 15 0 C15 5.28 15 10.56 15 16 C14.67 16 14.34 16 14 16 C13.67 11.71 13.34 7.42 13 3 C9.7 3 6.4 3 3 3 C2.34 7.29 1.68 11.58 1 16 C0.67 16 0.34 16 0 16 C0 10.72 0 5.44 0 0 Z " fill="#A3A1C3" transform="translate(297,281)"/>
<path d="M0 0 C4.05676492 -0.04954711 8.11341194 -0.085789 12.17041016 -0.10986328 C13.54967315 -0.11990253 14.92891496 -0.13353677 16.30810547 -0.15087891 C18.2938514 -0.17521754 20.2797545 -0.18543255 22.265625 -0.1953125 C24.05661621 -0.21102295 24.05661621 -0.21102295 25.88378906 -0.22705078 C28.85798164 -0.01034762 30.50318379 0.43813878 33 2 C28.67975519 2.86803338 24.89468097 3.0152837 20.5078125 2.66015625 C18.70957031 2.5199707 18.70957031 2.5199707 16.875 2.37695312 C15.6375 2.27318359 14.4 2.16941406 13.125 2.0625 C11.86429688 1.96259766 10.60359375 1.86269531 9.3046875 1.75976562 C6.20254276 1.51300411 3.10109769 1.25953665 0 1 C0 0.67 0 0.34 0 0 Z " fill="#BABCCF" transform="translate(220,233)"/>
<path d="M0 0 C1.79158489 -0.02696365 3.58328473 -0.04637917 5.375 -0.0625 C6.37273437 -0.07410156 7.37046875 -0.08570313 8.3984375 -0.09765625 C11 0 11 0 13 1 C13 4.96 13 8.92 13 13 C12.67 13 12.34 13 12 13 C11.93941406 12.37351563 11.87882812 11.74703125 11.81640625 11.1015625 C11.69072266 9.87566406 11.69072266 9.87566406 11.5625 8.625 C11.48128906 7.81289062 11.40007812 7.00078125 11.31640625 6.1640625 C11.10909886 3.95727195 11.10909886 3.95727195 10 2 C7.36 2 4.72 2 2 2 C1.34 5.3 0.68 8.6 0 12 C-0.33 12 -0.66 12 -1 12 C-1.02712066 10.56260487 -1.04645067 9.12506137 -1.0625 7.6875 C-1.07410156 6.88699219 -1.08570313 6.08648437 -1.09765625 5.26171875 C-1 3 -1 3 0 0 Z " fill="#90CDC5" transform="translate(252,235)"/>
<path d="M0 0 C4.62 0 9.24 0 14 0 C14 0.66 14 1.32 14 2 C9.41466617 2.80917656 6.66958927 2.93391785 2 2 C1.67 5.96 1.34 9.92 1 14 C0.67 14 0.34 14 0 14 C0 9.38 0 4.76 0 0 Z " fill="#8D6D5F" transform="translate(141,219)"/>
<path d="M0 0 C2.14576637 -0.02685938 4.29162645 -0.04633088 6.4375 -0.0625 C7.63246094 -0.07410156 8.82742188 -0.08570313 10.05859375 -0.09765625 C13 0 13 0 14 1 C14.07313567 3.53049402 14.09247527 6.03304837 14.0625 8.5625 C14.05798828 9.27341797 14.05347656 9.98433594 14.04882812 10.71679688 C14.03700864 12.47790013 14.01907263 14.23896036 14 16 C13.34 16 12.68 16 12 16 C12 11.38 12 6.76 12 2 C8.04 1.67 4.08 1.34 0 1 C0 0.67 0 0.34 0 0 Z " fill="#A9CBC2" transform="translate(253,234)"/>
<path d="M0 0 C-0.33 1.32 -0.66 2.64 -1 4 C-5.29 3.67 -9.58 3.34 -14 3 C-14 2.34 -14 1.68 -14 1 C-12.04175306 0.83232136 -10.08339945 0.66588795 -8.125 0.5 C-6.48917969 0.36078125 -6.48917969 0.36078125 -4.8203125 0.21875 C-3.21670436 0.09437042 -1.60842449 0 0 0 Z " fill="#9BBBDA" transform="translate(187,310)"/>
<path d="M0 0 C3.96 0 7.92 0 12 0 C11.67 0.99 11.34 1.98 11 3 C11 2.34 11 1.68 11 1 C10.29875 1.37125 9.5975 1.7425 8.875 2.125 C5.23556349 3.23265459 3.44299589 2.44125409 0 1 C0 0.67 0 0.34 0 0 Z " fill="#8F6F61" transform="translate(330,219)"/>
<path d="M0 0 C1.65 0 3.3 0 5 0 C4.01 0.33 3.02 0.66 2 1 C1.34 4.3 0.68 7.6 0 11 C-0.33 11 -0.66 11 -1 11 C-1.0270043 9.54176788 -1.04639787 8.08339325 -1.0625 6.625 C-1.07410156 5.81289062 -1.08570313 5.00078125 -1.09765625 4.1640625 C-1 2 -1 2 0 0 Z " fill="#89CFD1" transform="translate(252,236)"/>
</svg>
