<?xml version="1.0" standalone="no"?>
<!DOCTYPE svg PUBLIC "-//W3C//DTD SVG 20010904//EN"
 "http://www.w3.org/TR/2001/REC-SVG-20010904/DTD/svg10.dtd">
<svg version="1.0" xmlns="http://www.w3.org/2000/svg"
 width="1088.000000pt" height="956.000000pt" viewBox="0 0 1088.000000 956.000000"
 preserveAspectRatio="xMidYMid meet">

<g transform="translate(0.000000,956.000000) scale(0.100000,-0.100000)"
fill="#000000" stroke="none">
<path d="M0 4780 l0 -4780 5440 0 5440 0 0 4780 0 4780 -5440 0 -5440 0 0
-4780z m5446 2875 c31 -9 63 -28 86 -52 67 -69 68 -76 68 -427 l0 -315 488 -3
c483 -3 487 -3 529 -25 84 -45 132 -147 113 -238 -15 -68 -50 -118 -107 -152
l-48 -28 -484 -3 -484 -3 8 -1837 c6 -1647 5 -1841 -9 -1873 -24 -57 -61 -94
-118 -119 -102 -44 -214 -11 -275 82 -26 39 -28 50 -35 192 -3 83 -7 525 -7
982 -1 457 -4 1223 -8 1702 l-6 871 -466 3 -466 3 -48 28 c-54 32 -90 81 -107
146 -23 87 28 198 112 243 43 23 46 23 510 26 l467 3 3 333 3 333 29 41 c41
60 110 99 177 101 14 1 48 -6 75 -14z m679 -1856 c26 -7 63 -28 89 -50 82 -73
77 23 74 -1295 l-3 -1170 -28 -42 c-43 -65 -97 -96 -177 -100 -97 -6 -165 34
-213 123 l-22 40 0 1165 0 1165 24 48 c25 52 71 92 128 113 47 16 72 17 128 3z
m-1315 -59 c46 -24 85 -66 104 -112 14 -33 16 -171 16 -1198 0 -1271 3 -1199
-58 -1263 -107 -113 -291 -86 -362 54 -20 37 -20 65 -20 1209 0 1058 2 1174
16 1203 60 118 192 164 304 107z m2041 -511 c47 -23 97 -83 110 -131 6 -24 9
-245 7 -602 l-3 -564 -30 -44 c-103 -145 -306 -137 -385 17 l-25 49 -3 545
c-2 470 -1 551 13 598 39 133 190 197 316 132z m-2707 -143 c23 -13 56 -44 72
-67 l29 -42 3 -571 c2 -394 0 -583 -8 -609 -45 -154 -258 -200 -372 -80 -59
62 -58 51 -58 666 l0 563 26 52 c57 114 196 154 308 88z m90 -2948 c12 -17 16
-50 16 -141 l0 -118 87 103 c47 57 102 120 122 141 36 38 67 47 89 25 29 -29
12 -63 -93 -186 l-105 -124 22 -31 c13 -18 64 -90 115 -161 51 -71 93 -136 93
-146 0 -9 -9 -25 -20 -35 -37 -34 -62 -14 -165 132 -120 169 -111 159 -130
143 -12 -10 -15 -36 -15 -131 0 -106 -2 -121 -20 -139 -24 -24 -47 -25 -72 -3
-17 15 -18 39 -18 339 0 280 2 325 16 338 22 23 60 20 78 -6z m490 0 c12 -17
16 -50 16 -141 l0 -118 87 103 c47 57 102 120 122 141 36 38 67 47 89 25 29
-29 12 -63 -93 -186 l-105 -124 22 -31 c13 -18 64 -90 115 -161 51 -71 93
-136 93 -146 0 -9 -9 -25 -20 -35 -37 -34 -62 -14 -165 132 -120 169 -111 159
-130 143 -12 -10 -15 -36 -15 -131 0 -106 -2 -121 -20 -139 -24 -24 -47 -25
-72 -3 -17 15 -18 39 -18 339 0 280 2 325 16 338 22 23 60 20 78 -6z m484 10
c9 -9 12 -89 12 -300 l0 -288 121 0 c136 0 159 -7 159 -50 0 -19 -7 -33 -19
-40 -11 -5 -86 -10 -172 -10 -128 0 -155 3 -171 17 -17 15 -18 39 -18 339 0
297 1 324 18 333 23 14 55 14 70 -1z m1124 -15 c36 -21 47 -55 27 -79 -9 -12
-24 -14 -53 -10 -145 21 -153 21 -187 -13 -28 -28 -31 -37 -26 -72 3 -22 10
-46 16 -53 6 -7 51 -28 99 -46 115 -43 143 -61 171 -110 19 -35 23 -53 19
-105 -5 -81 -38 -133 -105 -166 -130 -64 -370 6 -302 87 14 17 32 16 129 -6
104 -23 170 16 170 99 0 44 -36 76 -118 105 -88 31 -110 42 -140 70 -56 50
-68 152 -29 227 18 33 37 51 78 72 50 27 60 29 136 24 56 -3 93 -11 115 -24z
m236 15 c9 -9 12 -99 12 -345 0 -318 -1 -333 -19 -343 -27 -14 -47 -13 -65 6
-14 13 -16 59 -16 344 0 303 1 330 18 339 23 14 55 14 70 -1z m374 -5 c17 -15
218 -609 218 -645 0 -8 -9 -23 -20 -33 -34 -31 -71 -10 -97 55 -12 30 -24 63
-27 73 -4 16 -16 17 -117 15 l-112 -3 -21 -62 c-26 -76 -45 -98 -80 -89 -56
14 -55 25 53 354 55 169 107 317 116 330 19 26 61 29 87 5z m-2894 -5 c19 -19
15 -66 -7 -78 -11 -5 -72 -10 -135 -10 l-116 0 0 -95 0 -95 108 0 c110 0 133
-7 145 -41 3 -9 -1 -26 -9 -38 -14 -19 -24 -21 -130 -21 l-114 0 0 -100 0
-100 121 0 c136 0 159 -7 159 -50 0 -19 -7 -33 -19 -40 -11 -5 -85 -10 -169
-10 -133 0 -153 2 -173 19 l-24 19 -3 289 c-2 158 0 298 3 310 12 49 26 53
194 53 109 0 161 -4 169 -12z m1870 0 c19 -19 15 -66 -7 -78 -11 -5 -72 -10
-135 -10 l-116 0 0 -95 0 -95 108 0 c110 0 133 -7 145 -41 3 -9 -1 -26 -9 -38
-14 -19 -24 -21 -130 -21 l-114 0 0 -100 0 -100 121 0 c66 0 129 -5 140 -10
26 -14 26 -66 0 -80 -11 -5 -85 -10 -169 -10 -133 0 -153 2 -173 19 l-24 19
-3 289 c-2 158 0 298 3 310 12 49 26 53 194 53 109 0 161 -4 169 -12z"/>
<path d="M6890 1966 c0 -8 -16 -68 -35 -135 -19 -66 -35 -123 -35 -126 0 -3
37 -5 81 -5 95 0 90 -20 38 162 -30 105 -49 145 -49 104z"/>
</g>
</svg>
